HIERARCHY
ROOT Pelvis
{
	OFFSET 0.000000 0.000000 0.000000
	CHANNELS 6 Xposition Yposition Zposition Zrotation Yrotation Xrotation 
	JOINT Left_hip
	{
		OFFSET 0.069463 -0.088608 -0.009542
		CHANNELS 3 Zrotation Yrotation Xrotation
		JOINT Left_knee
		{
			OFFSET 0.030639 -0.359740 -0.005288
			CHANNELS 3 Zrotation Yrotation Xrotation
			JOINT Left_ankle
			{
				OFFSET -0.011068 -0.376034 -0.042462
				CHANNELS 3 Zrotation Yrotation Xrotation
				JOINT Left_foot
				{
					OFFSET 0.023192 -0.053321 0.111332
					CHANNELS 3 Zrotation Yrotation Xrotation
					End Site
					{
						OFFSET 0.000000 0.000000 0.000000
					}
				}
			}
		}
	}
	JOINT Right_hip
	{
		OFFSET -0.067438 -0.088025 -0.006263
		CHANNELS 3 Zrotation Yrotation Xrotation
		JOINT Right_knee
		{
			OFFSET -0.035962 -0.366229 -0.008063
			CHANNELS 3 Zrotation Yrotation Xrotation
			JOINT Right_ankle
			{
				OFFSET 0.013608 -0.375719 -0.040481
				CHANNELS 3 Zrotation Yrotation Xrotation
				JOINT Right_foot
				{
					OFFSET -0.021034 -0.045527 0.114617
					CHANNELS 3 Zrotation Yrotation Xrotation
					End Site
					{
						OFFSET 0.000000 0.000000 0.000000
					}
				}
			}
		}
	}
	JOINT Spine1
	{
		OFFSET -0.002610 0.101823 -0.019986
		CHANNELS 3 Zrotation Yrotation Xrotation
		JOINT Spine2
		{
			OFFSET 0.004114 0.128714 -0.000938
			CHANNELS 3 Zrotation Yrotation Xrotation
			JOINT Spine3
			{
				OFFSET 0.002191 0.048470 0.027684
				CHANNELS 3 Zrotation Yrotation Xrotation
				JOINT Neck
				{
					OFFSET -0.002856 0.198873 -0.044022
					CHANNELS 3 Zrotation Yrotation Xrotation
					JOINT Head
					{
						OFFSET 0.002981 0.062960 0.049860
						CHANNELS 3 Zrotation Yrotation Xrotation
						End Site
						{
							OFFSET 0.000000 0.000000 0.000000
						}
					}
				}
				JOINT Left_collar
				{
					OFFSET 0.073708 0.112550 -0.033440
					CHANNELS 3 Zrotation Yrotation Xrotation
					JOINT Left_shoulder
					{
						OFFSET 0.083291 0.030786 -0.008013
						CHANNELS 3 Zrotation Yrotation Xrotation
						JOINT Left_elbow
						{
							OFFSET 0.245601 -0.011792 -0.027873
							CHANNELS 3 Zrotation Yrotation Xrotation
							JOINT Left_wrist
							{
								OFFSET 0.232258 0.008622 -0.000487
								CHANNELS 3 Zrotation Yrotation Xrotation
								JOINT Left_palm
								{
									OFFSET 0.077300 -0.009457 -0.012851
									CHANNELS 3 Zrotation Yrotation Xrotation
									End Site
									{
										OFFSET 0.000000 0.000000 0.000000
									}
								}
							}
						}
					}
				}
				JOINT Right_collar
				{
					OFFSET -0.075339 0.110574 -0.037874
					CHANNELS 3 Zrotation Yrotation Xrotation
					JOINT Right_shoulder
					{
						OFFSET -0.086522 0.031207 -0.009986
						CHANNELS 3 Zrotation Yrotation Xrotation
						JOINT Right_elbow
						{
							OFFSET -0.237313 -0.011478 -0.019859
							CHANNELS 3 Zrotation Yrotation Xrotation
							JOINT Right_wrist
							{
								OFFSET -0.237599 0.007976 -0.003742
								CHANNELS 3 Zrotation Yrotation Xrotation
								JOINT Right_palm
								{
									OFFSET -0.076920 -0.006943 -0.009920
									CHANNELS 3 Zrotation Yrotation Xrotation
									End Site
									{
										OFFSET 0.000000 0.000000 0.000000
									}
								}
							}
						}
					}
				}
			}
		}
	}
}
MOTION
Frames: 12
Frame Time: 0.100000
0.000000 0.000000 0.000000 177.772522 24.275477 -18.898368 3.642294 3.738707 4.245498 0.380172 -3.636964 3.899794 0.225685 7.084438 -1.977989 -3.546019 8.618578 -1.500973 -3.081573 -4.719165 7.632436 -1.943631 -8.720872 3.267515 -8.814380 -7.996347 -5.401438 17.423140 -11.915184 10.330028 -1.310181 1.849572 -0.284847 2.670851 -4.611605 16.698796 -0.359853 -1.274789 -8.945357 -2.911676 -12.693654 18.858709 4.384551 -16.511618 -10.059599 -30.236880 0.271729 3.085922 -54.909416 -4.773377 17.965315 7.101864 -5.286395 -4.834786 -15.209341 -10.388950 10.093117 -10.704137 -4.852691 -13.542761 31.406135 7.700247 4.221484 53.078241 -2.234269 13.281394 -8.963182 9.394146 -8.948677 6.935327 11.198848 -2.968381 12.335071 5.030665 -1.582727 
0.000424 0.000059 0.000296 177.727089 24.397722 -18.980747 3.685670 3.716672 4.243552 0.388551 -3.678057 4.029668 0.171816 7.038240 -2.035962 -3.486802 8.665010 -1.480113 -3.045080 -4.776895 7.755691 -1.936230 -8.730280 3.241647 -8.787608 -8.065252 -5.445934 17.352050 -11.806043 10.336309 -1.363248 1.861851 -0.294984 2.695544 -4.657298 16.869012 -0.333007 -1.295548 -8.933341 -2.827336 -12.565097 18.837297 4.364948 -16.517682 -10.039767 -30.241542 0.156678 3.119244 -54.751128 -4.802546 17.929628 7.037737 -5.391270 -4.766404 -15.165895 -10.295482 10.199109 -10.723334 -4.881414 -13.593037 31.471420 7.802549 4.230716 52.972820 -2.133813 13.295779 -8.916237 9.549083 -8.858320 6.951518 11.116043 -2.747611 12.373630 5.052251 -1.626897 
0.000909 0.000137 0.000771 177.731152 24.403955 -18.988918 3.703969 3.675774 4.121364 0.384682 -3.681169 4.290973 0.184044 7.054705 -2.145872 -3.434487 8.691146 -1.460027 -3.015377 -4.759989 7.660576 -1.951675 -8.717916 3.461132 -8.839569 -8.132645 -5.563866 17.395301 -11.715020 10.351046 -1.387785 1.883032 -0.270303 2.727339 -4.678613 17.086000 -0.323767 -1.288636 -8.964908 -2.766740 -12.438549 18.819665 4.310428 -16.503347 -9.907853 -30.267424 0.006871 3.156766 -54.635616 -4.904484 17.912889 7.028880 -5.414890 -4.871688 -15.121915 -10.231936 10.246028 -10.737916 -4.908378 -13.583924 31.583612 7.983264 4.308287 52.850090 -1.989957 13.335918 -8.889749 9.567453 -8.847161 6.941950 11.091262 -2.591834 12.405619 5.073132 -1.628612 
0.001241 0.000293 0.001542 177.732559 24.521428 -19.023625 3.703180 3.621129 4.088097 0.369790 -3.770260 4.484756 0.223289 7.086289 -2.302530 -3.398572 8.710895 -1.398828 -3.029940 -4.735285 7.463334 -1.986570 -8.763990 4.053027 -8.931915 -8.232315 -5.827723 17.523164 -11.651705 10.348316 -1.437810 1.873077 -0.218628 2.762944 -4.704964 17.389456 -0.334657 -1.290414 -9.034679 -2.695801 -12.460871 18.906189 4.296339 -16.621670 -9.701847 -30.327525 -0.153639 3.222674 -54.409299 -4.984458 17.945729 6.921932 -5.401481 -4.853642 -15.113231 -10.224773 10.440054 -10.713418 -4.913783 -13.594580 31.732285 8.188543 4.404718 52.649520 -1.919086 13.406259 -8.777522 9.479355 -8.739718 6.963905 11.102605 -2.352413 12.366406 5.071642 -1.593268 
0.001397 0.000624 0.002628 177.718173 24.673650 -18.925854 3.721024 3.581646 3.836615 0.316391 -3.844616 4.878331 0.240327 7.173393 -2.492371 -3.347755 8.607218 -1.363362 -3.023491 -4.716541 7.162216 -2.027912 -8.776742 4.646195 -9.091029 -8.379675 -6.098311 17.773194 -11.607692 10.400237 -1.486469 1.880589 -0.189072 2.811928 -4.730507 17.571254 -0.374296 -1.277766 -9.188795 -2.673681 -12.577220 18.938152 4.205563 -16.726567 -9.240828 -30.368477 -0.233340 3.198728 -53.968236 -4.971080 18.183663 6.740224 -5.151946 -4.558784 -15.116855 -10.288323 10.914436 -10.672970 -4.958791 -13.515590 31.910555 8.301397 4.453478 52.217556 -1.980396 13.567145 -8.515657 9.240739 -8.394140 6.987884 11.160524 -1.937123 12.330321 5.117860 -1.492420 
0.004891 0.002749 -0.000323 177.359001 25.502281 -18.052428 3.781374 3.471048 1.947932 0.320270 -4.204704 5.706304 0.232034 7.226400 -2.518361 -3.173828 8.220830 -1.448888 -2.650975 -4.881973 5.411466 -2.216178 -8.923818 5.870495 -9.316797 -9.015990 -6.425877 17.714774 -11.265598 10.798256 -1.605701 1.739344 0.625396 3.046120 -4.987450 16.572945 -0.278746 -1.318634 -9.628854 -2.795022 -12.939616 18.177942 4.139010 -16.473847 -8.505599 -29.991803 -0.185670 2.514873 -53.600885 -4.815705 19.096619 6.380150 -4.772965 -4.630001 -14.364980 -9.837840 11.075859 -11.110340 -5.521376 -12.719129 31.892554 8.031735 3.761411 51.480675 -2.286539 13.839008 -8.234684 8.959415 -8.318763 6.965408 11.047080 -1.560428 12.794008 5.603921 -1.259531 
0.016493 0.011163 -0.016257 176.456198 27.457666 -16.529999 3.835398 2.558618 -4.187841 0.164327 -4.782802 10.749983 0.143452 7.200594 -2.706812 -2.317535 8.178426 -2.695954 -1.843038 -4.869897 -0.130115 -2.872740 -9.410703 11.412408 -8.938245 -10.832359 -7.405544 15.492152 -9.553478 10.683181 -1.792946 1.869712 4.042510 3.436354 -5.286507 14.846149 0.163293 -1.197208 -9.478682 -2.575857 -13.211333 14.810513 5.577476 -16.504513 -9.714889 -27.874069 -2.228710 1.766194 -54.289568 -5.728079 20.146477 6.165612 -5.532166 -5.361434 -13.784282 -8.953286 10.611299 -12.123435 -6.476390 -11.169302 30.547332 9.472196 3.140490 51.837231 -2.274812 13.676903 -9.055601 10.203443 -8.971740 6.980898 11.091959 -2.080960 13.810421 6.279789 -0.897583 
0.030600 0.022802 -0.029233 175.474589 30.099664 -16.066824 4.490454 1.397717 -10.242402 -0.990023 -5.388541 17.439294 0.054601 6.879961 -3.632677 -1.370272 8.215000 -3.599113 -1.556191 -5.050916 -4.773227 -3.058623 -10.268151 17.603030 -8.925572 -12.618011 -9.280852 13.786245 -7.786512 10.483058 -1.817982 2.419626 7.907892 3.298044 -5.326013 14.648006 0.177324 -0.951430 -9.144385 -2.660018 -12.789604 13.007646 6.072923 -16.995278 -8.942658 -26.347957 -5.262489 1.724703 -52.885293 -7.723304 20.006849 6.445911 -6.394724 -7.228296 -12.123052 -8.337743 9.734133 -12.623254 -6.767529 -9.789526 29.872789 12.211301 3.669211 51.520388 -1.138706 13.456005 -9.761322 11.833774 -9.728212 6.370908 11.134549 -2.470692 14.079568 6.590145 -0.375136 
0.042644 0.037140 -0.033026 174.530094 32.521451 -16.409076 5.397089 0.221871 -15.306218 -2.452719 -5.968497 24.672840 -0.016015 6.459743 -5.175579 -0.149147 8.430478 -4.344886 -1.753454 -5.532248 -8.836436 -3.049477 -11.411546 25.304127 -8.647655 -14.189818 -12.062458 12.279721 -5.794596 10.101795 -1.943975 2.994715 10.703892 3.051357 -5.121421 15.180747 -0.126344 -0.681682 -8.622733 -3.094205 -10.641882 13.224912 4.723394 -17.034218 -6.438667 -24.818380 -6.877179 1.367844 -51.519315 -9.184436 19.029893 6.932292 -7.686757 -9.131992 -10.547592 -7.636280 9.098078 -12.865698 -6.789468 -8.578972 29.460488 14.282590 3.878166 50.266805 1.046387 12.984744 -10.571626 13.886007 -10.306233 5.792155 11.055372 -1.052496 14.246594 6.687682 -0.022511 
0.053114 0.057198 -0.028469 173.915652 33.959888 -17.181278 6.663485 -0.597521 -20.466223 -4.438532 -5.879712 34.015355 -0.079456 6.209577 -7.292494 1.249231 8.469411 -5.446032 -2.070335 -5.874610 -12.944073 -3.322746 -12.238153 34.649629 -7.900758 -15.597979 -15.296837 10.088885 -3.549579 9.176051 -2.123863 3.828612 13.632967 2.420207 -4.591505 15.312313 -0.733770 -0.190867 -8.034832 -3.756064 -6.485489 13.110572 2.466925 -15.329745 -3.664713 -23.190019 -8.391868 1.135558 -50.251716 -9.572041 17.786395 7.068445 -8.459333 -10.534830 -8.931058 -6.506620 8.196890 -13.479065 -6.961348 -7.773258 28.836280 16.546694 4.105358 49.008662 3.764536 12.283315 -11.763940 16.691883 -11.283327 5.116081 10.986248 0.090650 14.878931 6.801305 0.024818 
0.059263 0.083195 -0.014698 172.915837 35.641507 -18.724192 8.116282 -1.483669 -25.676416 -6.615912 -5.609245 45.000970 -0.156892 6.097948 -9.675112 2.691527 8.508313 -6.738773 -2.207286 -6.236211 -16.206332 -3.987823 -13.129985 44.766875 -7.683015 -17.260645 -18.825944 8.695607 -1.854310 8.191468 -2.370570 4.653420 15.938237 1.725409 -4.162394 15.432168 -1.477654 0.281206 -7.834809 -4.034351 -2.262820 13.060757 0.433948 -12.985085 -1.275999 -22.096871 -9.121843 0.852661 -49.030568 -9.026627 16.546292 7.056292 -8.706578 -11.588770 -7.872809 -5.452003 7.568472 -14.044459 -7.102503 -6.900172 28.397919 18.501930 4.023524 47.411227 6.251560 11.678884 -12.689972 19.785894 -11.753341 4.597062 11.249105 1.578173 15.477660 6.819054 0.438150 
0.060433 0.120825 0.004263 170.618516 37.392800 -21.454028 11.053656 -2.690526 -32.769089 -13.699940 -5.915058 60.333621 1.166060 8.218252 -14.795906 2.841645 10.519152 -6.352553 -2.924896 -6.915739 -19.775656 -3.027552 -15.226304 58.056115 -6.754352 -20.424454 -27.439716 4.733773 -3.329417 8.110849 -2.721743 4.237687 17.860349 0.090590 -2.990413 12.337675 -0.560512 0.950583 -5.770449 -7.223507 -2.225980 17.100075 1.581625 -7.717605 -4.914043 -22.737566 -8.157674 2.628504 -47.017281 -8.833695 12.049773 6.342492 -9.181386 -0.421742 -2.487242 -4.142444 14.635578 -12.478381 -5.034954 -8.137653 25.848905 18.982565 5.080084 46.769325 11.121975 8.561516 -10.162286 23.072279 -5.117775 -4.475829 9.556829 -2.755835 16.870749 3.638760 3.318708 
